<mxfile host="app.diagrams.net" agent="Mozilla/5.0 (Windows NT 10.0; Win64; x64) AppleWebKit/537.36 (KHTML, like Gecko) Chrome/134.0.0.0 Safari/537.36" version="26.1.0">
  <diagram name="Страница — 1" id="BH10aJlGpwAowXUCffwy">
    <mxGraphModel dx="1176" dy="862" grid="1" gridSize="10" guides="1" tooltips="1" connect="1" arrows="1" fold="1" page="1" pageScale="1" pageWidth="827" pageHeight="1169" math="0" shadow="0">
      <root>
        <mxCell id="0" />
        <mxCell id="1" parent="0" />
        <mxCell id="vlcjQJY25uTUCJ9XE4Z6-1" value="Создание сцен через специфичный редактор" style="ellipse;whiteSpace=wrap;html=1;" parent="1" vertex="1">
          <mxGeometry x="1050" y="260" width="140" height="70" as="geometry" />
        </mxCell>
        <mxCell id="vlcjQJY25uTUCJ9XE4Z6-2" value="Разработчик игр&lt;div&gt;&lt;br&gt;&lt;/div&gt;" style="shape=umlActor;verticalLabelPosition=bottom;verticalAlign=top;html=1;" parent="1" vertex="1">
          <mxGeometry x="945" y="400" width="30" height="60" as="geometry" />
        </mxCell>
        <mxCell id="vlcjQJY25uTUCJ9XE4Z6-4" value="Разработка и оптимизация графического API(OpenGL/Vulkan)" style="ellipse;whiteSpace=wrap;html=1;" parent="1" vertex="1">
          <mxGeometry x="857" y="505" width="190" height="90" as="geometry" />
        </mxCell>
        <mxCell id="vlcjQJY25uTUCJ9XE4Z6-6" value="&lt;div&gt;Разработчик движка&lt;/div&gt;" style="shape=umlActor;verticalLabelPosition=bottom;verticalAlign=top;html=1;" parent="1" vertex="1">
          <mxGeometry x="1107" y="610" width="30" height="60" as="geometry" />
        </mxCell>
        <mxCell id="vlcjQJY25uTUCJ9XE4Z6-8" value="Расширение и поддержка ECS-архитектуры" style="ellipse;whiteSpace=wrap;html=1;" parent="1" vertex="1">
          <mxGeometry x="1027" y="430" width="190" height="90" as="geometry" />
        </mxCell>
        <mxCell id="vlcjQJY25uTUCJ9XE4Z6-9" value="Интеграция и поддержка Lua-скриптинга" style="ellipse;whiteSpace=wrap;html=1;" parent="1" vertex="1">
          <mxGeometry x="1027" y="725" width="190" height="90" as="geometry" />
        </mxCell>
        <mxCell id="vlcjQJY25uTUCJ9XE4Z6-10" value="Разработка новых редакторов и инструментов" style="ellipse;whiteSpace=wrap;html=1;" parent="1" vertex="1">
          <mxGeometry x="1247" y="490" width="190" height="90" as="geometry" />
        </mxCell>
        <mxCell id="vlcjQJY25uTUCJ9XE4Z6-12" value="Ведение документации и примеров использования" style="ellipse;whiteSpace=wrap;html=1;" parent="1" vertex="1">
          <mxGeometry x="1247" y="640" width="190" height="90" as="geometry" />
        </mxCell>
        <mxCell id="vlcjQJY25uTUCJ9XE4Z6-14" value="&#xa;Работа с ECS для организации объектов&#xa;&#xa;" style="ellipse;whiteSpace=wrap;html=1;" parent="1" vertex="1">
          <mxGeometry x="1270" y="260" width="160" height="70" as="geometry" />
        </mxCell>
        <mxCell id="vlcjQJY25uTUCJ9XE4Z6-16" value="Подключение расширений и сторонних библиотек" style="ellipse;whiteSpace=wrap;html=1;" parent="1" vertex="1">
          <mxGeometry x="890" y="120" width="140" height="70" as="geometry" />
        </mxCell>
        <mxCell id="vlcjQJY25uTUCJ9XE4Z6-17" value="Сборка и тестирование игрового проекта (Windows/Linux)" style="ellipse;whiteSpace=wrap;html=1;" parent="1" vertex="1">
          <mxGeometry x="720" y="380" width="140" height="70" as="geometry" />
        </mxCell>
        <mxCell id="vlcjQJY25uTUCJ9XE4Z6-18" value="Импорт ресурсов" style="ellipse;whiteSpace=wrap;html=1;" parent="1" vertex="1">
          <mxGeometry x="1280" y="120" width="140" height="70" as="geometry" />
        </mxCell>
        <mxCell id="vlcjQJY25uTUCJ9XE4Z6-22" value="Использование встроенной физической модели" style="ellipse;whiteSpace=wrap;html=1;" parent="1" vertex="1">
          <mxGeometry x="1050" y="120" width="140" height="70" as="geometry" />
        </mxCell>
        <mxCell id="vlcjQJY25uTUCJ9XE4Z6-23" value="&amp;lt;&amp;lt;Extend&amp;gt;&amp;gt;" style="endArrow=none;endSize=16;endFill=0;html=1;rounded=0;dashed=1;exitX=0.5;exitY=1;exitDx=0;exitDy=0;entryX=0.5;entryY=0;entryDx=0;entryDy=0;startFill=0;" parent="1" source="vlcjQJY25uTUCJ9XE4Z6-22" target="vlcjQJY25uTUCJ9XE4Z6-1" edge="1">
          <mxGeometry x="0.0057" width="160" relative="1" as="geometry">
            <mxPoint x="1010" y="250" as="sourcePoint" />
            <mxPoint x="1180" y="240" as="targetPoint" />
            <mxPoint as="offset" />
          </mxGeometry>
        </mxCell>
        <mxCell id="vlcjQJY25uTUCJ9XE4Z6-26" value="Написание игровой и системной логики на Lua" style="ellipse;whiteSpace=wrap;html=1;" parent="1" vertex="1">
          <mxGeometry x="890" y="260" width="140" height="70" as="geometry" />
        </mxCell>
        <mxCell id="vlcjQJY25uTUCJ9XE4Z6-29" value="&amp;lt;&amp;lt;Extend&amp;gt;&amp;gt;" style="endArrow=none;endSize=16;endFill=0;html=1;rounded=0;dashed=1;exitX=0.5;exitY=1;exitDx=0;exitDy=0;startFill=0;" parent="1" source="vlcjQJY25uTUCJ9XE4Z6-16" target="vlcjQJY25uTUCJ9XE4Z6-26" edge="1">
          <mxGeometry width="160" relative="1" as="geometry">
            <mxPoint x="1120" y="190" as="sourcePoint" />
            <mxPoint x="1010" y="230" as="targetPoint" />
            <mxPoint as="offset" />
          </mxGeometry>
        </mxCell>
        <mxCell id="vlcjQJY25uTUCJ9XE4Z6-30" value="&amp;lt;&amp;lt;Include&amp;gt;&amp;gt;" style="endArrow=none;endSize=16;endFill=0;html=1;rounded=0;dashed=1;entryX=0;entryY=0.5;entryDx=0;entryDy=0;exitX=1;exitY=0.5;exitDx=0;exitDy=0;startFill=0;" parent="1" source="vlcjQJY25uTUCJ9XE4Z6-1" target="vlcjQJY25uTUCJ9XE4Z6-14" edge="1">
          <mxGeometry x="-0.25" y="-5" width="160" relative="1" as="geometry">
            <mxPoint x="950" y="400" as="sourcePoint" />
            <mxPoint x="970" y="340" as="targetPoint" />
            <mxPoint as="offset" />
          </mxGeometry>
        </mxCell>
        <mxCell id="vlcjQJY25uTUCJ9XE4Z6-33" value="Использование ECS" style="ellipse;whiteSpace=wrap;html=1;" parent="1" vertex="1">
          <mxGeometry x="710" y="120" width="160" height="70" as="geometry" />
        </mxCell>
        <mxCell id="vlcjQJY25uTUCJ9XE4Z6-34" value="&amp;lt;&amp;lt;Extend&lt;span style=&quot;background-color: light-dark(#ffffff, var(--ge-dark-color, #121212)); color: light-dark(rgb(0, 0, 0), rgb(255, 255, 255));&quot;&gt;&amp;gt;&amp;gt;&lt;/span&gt;" style="endArrow=none;endSize=16;endFill=0;html=1;rounded=0;dashed=1;entryX=0;entryY=0.5;entryDx=0;entryDy=0;exitX=0.5;exitY=1;exitDx=0;exitDy=0;startFill=0;" parent="1" source="vlcjQJY25uTUCJ9XE4Z6-33" target="vlcjQJY25uTUCJ9XE4Z6-26" edge="1">
          <mxGeometry x="0.0004" width="160" relative="1" as="geometry">
            <mxPoint x="770" y="280" as="sourcePoint" />
            <mxPoint x="1300" y="200" as="targetPoint" />
            <mxPoint as="offset" />
          </mxGeometry>
        </mxCell>
        <mxCell id="vlcjQJY25uTUCJ9XE4Z6-37" value="" style="endArrow=classic;endFill=1;html=1;rounded=0;exitX=0;exitY=0.3333333333333333;exitDx=0;exitDy=0;entryX=0.5;entryY=1;entryDx=0;entryDy=0;exitPerimeter=0;" parent="1" source="vlcjQJY25uTUCJ9XE4Z6-6" target="vlcjQJY25uTUCJ9XE4Z6-4" edge="1">
          <mxGeometry x="0.0105" width="160" relative="1" as="geometry">
            <mxPoint x="1132" y="480" as="sourcePoint" />
            <mxPoint x="1132" y="410" as="targetPoint" />
            <mxPoint as="offset" />
          </mxGeometry>
        </mxCell>
        <mxCell id="vlcjQJY25uTUCJ9XE4Z6-38" value="" style="endArrow=classic;endFill=1;html=1;rounded=0;exitX=1;exitY=1;exitDx=0;exitDy=0;entryX=0;entryY=0.5;entryDx=0;entryDy=0;exitPerimeter=0;" parent="1" source="vlcjQJY25uTUCJ9XE4Z6-6" target="vlcjQJY25uTUCJ9XE4Z6-12" edge="1">
          <mxGeometry x="0.0093" width="160" relative="1" as="geometry">
            <mxPoint x="1132" y="620" as="sourcePoint" />
            <mxPoint x="1132" y="570" as="targetPoint" />
            <mxPoint as="offset" />
          </mxGeometry>
        </mxCell>
        <mxCell id="vlcjQJY25uTUCJ9XE4Z6-39" value="Ведение документации и примеров использования" style="ellipse;whiteSpace=wrap;html=1;" parent="1" vertex="1">
          <mxGeometry x="827" y="635" width="190" height="90" as="geometry" />
        </mxCell>
        <mxCell id="vlcjQJY25uTUCJ9XE4Z6-40" value="" style="endArrow=classic;endFill=1;html=1;rounded=0;exitX=0;exitY=1;exitDx=0;exitDy=0;entryX=1;entryY=0.5;entryDx=0;entryDy=0;exitPerimeter=0;" parent="1" source="vlcjQJY25uTUCJ9XE4Z6-6" target="vlcjQJY25uTUCJ9XE4Z6-39" edge="1">
          <mxGeometry x="-0.3292" y="-3" width="160" relative="1" as="geometry">
            <mxPoint x="1147" y="640" as="sourcePoint" />
            <mxPoint x="1247" y="635" as="targetPoint" />
            <mxPoint as="offset" />
          </mxGeometry>
        </mxCell>
        <mxCell id="vlcjQJY25uTUCJ9XE4Z6-43" value="" style="endArrow=classic;endFill=1;html=1;rounded=0;entryX=0;entryY=1;entryDx=0;entryDy=0;exitX=1;exitY=0.3333333333333333;exitDx=0;exitDy=0;exitPerimeter=0;" parent="1" source="vlcjQJY25uTUCJ9XE4Z6-6" target="vlcjQJY25uTUCJ9XE4Z6-10" edge="1">
          <mxGeometry x="0.007" width="160" relative="1" as="geometry">
            <mxPoint x="1137" y="635" as="sourcePoint" />
            <mxPoint x="1002" y="535" as="targetPoint" />
            <mxPoint as="offset" />
          </mxGeometry>
        </mxCell>
        <mxCell id="vlcjQJY25uTUCJ9XE4Z6-44" value="" style="endArrow=classic;endFill=1;html=1;rounded=0;exitX=0.5;exitY=0;exitDx=0;exitDy=0;entryX=0.5;entryY=1;entryDx=0;entryDy=0;exitPerimeter=0;" parent="1" source="vlcjQJY25uTUCJ9XE4Z6-6" target="vlcjQJY25uTUCJ9XE4Z6-8" edge="1">
          <mxGeometry x="0.0105" width="160" relative="1" as="geometry">
            <mxPoint x="1125" y="626" as="sourcePoint" />
            <mxPoint x="1002" y="535" as="targetPoint" />
            <mxPoint as="offset" />
          </mxGeometry>
        </mxCell>
        <mxCell id="vlcjQJY25uTUCJ9XE4Z6-48" value="" style="endArrow=classic;endFill=1;html=1;rounded=0;entryX=0.5;entryY=0;entryDx=0;entryDy=0;" parent="1" target="vlcjQJY25uTUCJ9XE4Z6-9" edge="1">
          <mxGeometry x="0.0108" width="160" relative="1" as="geometry">
            <mxPoint x="1122" y="655" as="sourcePoint" />
            <mxPoint x="1002" y="535" as="targetPoint" />
            <mxPoint as="offset" />
          </mxGeometry>
        </mxCell>
        <mxCell id="Jb1mYvgSwqPIaw8SYEAz-1" value="&amp;lt;&amp;lt;Extend&amp;gt;&amp;gt;" style="endArrow=none;endSize=16;endFill=0;html=1;rounded=0;dashed=1;exitX=0;exitY=1;exitDx=0;exitDy=0;entryX=1;entryY=0;entryDx=0;entryDy=0;startFill=0;" edge="1" parent="1" source="vlcjQJY25uTUCJ9XE4Z6-18" target="vlcjQJY25uTUCJ9XE4Z6-1">
          <mxGeometry x="0.0008" width="160" relative="1" as="geometry">
            <mxPoint x="1130" y="200" as="sourcePoint" />
            <mxPoint x="1130" y="270" as="targetPoint" />
            <mxPoint as="offset" />
          </mxGeometry>
        </mxCell>
        <mxCell id="Jb1mYvgSwqPIaw8SYEAz-4" value="" style="endArrow=classic;endFill=1;html=1;rounded=0;exitX=0.5;exitY=0;exitDx=0;exitDy=0;entryX=0.5;entryY=1;entryDx=0;entryDy=0;exitPerimeter=0;" edge="1" parent="1" source="vlcjQJY25uTUCJ9XE4Z6-2" target="vlcjQJY25uTUCJ9XE4Z6-26">
          <mxGeometry x="0.0105" width="160" relative="1" as="geometry">
            <mxPoint x="1030" y="500" as="sourcePoint" />
            <mxPoint x="1100" y="380" as="targetPoint" />
            <mxPoint as="offset" />
          </mxGeometry>
        </mxCell>
        <mxCell id="Jb1mYvgSwqPIaw8SYEAz-5" value="" style="endArrow=classic;endFill=1;html=1;rounded=0;exitX=1;exitY=0.3333333333333333;exitDx=0;exitDy=0;entryX=0.5;entryY=1;entryDx=0;entryDy=0;exitPerimeter=0;" edge="1" parent="1" source="vlcjQJY25uTUCJ9XE4Z6-2" target="vlcjQJY25uTUCJ9XE4Z6-1">
          <mxGeometry x="0.0105" width="160" relative="1" as="geometry">
            <mxPoint x="970" y="410" as="sourcePoint" />
            <mxPoint x="970" y="340" as="targetPoint" />
            <mxPoint as="offset" />
          </mxGeometry>
        </mxCell>
        <mxCell id="Jb1mYvgSwqPIaw8SYEAz-6" value="" style="endArrow=classic;endFill=1;html=1;rounded=0;exitX=0;exitY=0.3333333333333333;exitDx=0;exitDy=0;entryX=1;entryY=0.5;entryDx=0;entryDy=0;exitPerimeter=0;" edge="1" parent="1" source="vlcjQJY25uTUCJ9XE4Z6-2" target="vlcjQJY25uTUCJ9XE4Z6-17">
          <mxGeometry x="0.0105" width="160" relative="1" as="geometry">
            <mxPoint x="985" y="430" as="sourcePoint" />
            <mxPoint x="1130" y="340" as="targetPoint" />
            <mxPoint as="offset" />
          </mxGeometry>
        </mxCell>
        <mxCell id="Jb1mYvgSwqPIaw8SYEAz-7" value="" style="endArrow=classic;endFill=1;html=1;rounded=0;exitX=0.5;exitY=1;exitDx=0;exitDy=0;entryX=0;entryY=0.5;entryDx=0;entryDy=0;dashed=1;" edge="1" parent="1" source="vlcjQJY25uTUCJ9XE4Z6-33" target="vlcjQJY25uTUCJ9XE4Z6-26">
          <mxGeometry x="0.0105" width="160" relative="1" as="geometry">
            <mxPoint x="970" y="410" as="sourcePoint" />
            <mxPoint x="970" y="340" as="targetPoint" />
            <mxPoint as="offset" />
          </mxGeometry>
        </mxCell>
        <mxCell id="Jb1mYvgSwqPIaw8SYEAz-8" value="" style="endArrow=classic;endFill=1;html=1;rounded=0;exitX=0.5;exitY=1;exitDx=0;exitDy=0;entryX=0.5;entryY=0;entryDx=0;entryDy=0;dashed=1;" edge="1" parent="1" source="vlcjQJY25uTUCJ9XE4Z6-16" target="vlcjQJY25uTUCJ9XE4Z6-26">
          <mxGeometry x="0.0105" width="160" relative="1" as="geometry">
            <mxPoint x="800" y="200" as="sourcePoint" />
            <mxPoint x="900" y="305" as="targetPoint" />
            <mxPoint as="offset" />
          </mxGeometry>
        </mxCell>
        <mxCell id="Jb1mYvgSwqPIaw8SYEAz-9" value="" style="endArrow=classic;endFill=1;html=1;rounded=0;exitX=0.5;exitY=1;exitDx=0;exitDy=0;entryX=0.5;entryY=0;entryDx=0;entryDy=0;dashed=1;" edge="1" parent="1" source="vlcjQJY25uTUCJ9XE4Z6-22" target="vlcjQJY25uTUCJ9XE4Z6-1">
          <mxGeometry x="0.0105" width="160" relative="1" as="geometry">
            <mxPoint x="970" y="200" as="sourcePoint" />
            <mxPoint x="970" y="270" as="targetPoint" />
            <mxPoint as="offset" />
          </mxGeometry>
        </mxCell>
        <mxCell id="Jb1mYvgSwqPIaw8SYEAz-10" value="" style="endArrow=classic;endFill=1;html=1;rounded=0;exitX=0;exitY=1;exitDx=0;exitDy=0;entryX=1;entryY=0;entryDx=0;entryDy=0;dashed=1;" edge="1" parent="1" source="vlcjQJY25uTUCJ9XE4Z6-18" target="vlcjQJY25uTUCJ9XE4Z6-1">
          <mxGeometry x="0.0105" width="160" relative="1" as="geometry">
            <mxPoint x="1130" y="200" as="sourcePoint" />
            <mxPoint x="1130" y="270" as="targetPoint" />
            <mxPoint as="offset" />
          </mxGeometry>
        </mxCell>
        <mxCell id="Jb1mYvgSwqPIaw8SYEAz-14" value="" style="endArrow=classic;endFill=1;html=1;rounded=0;exitX=1;exitY=0.5;exitDx=0;exitDy=0;entryX=0;entryY=0.5;entryDx=0;entryDy=0;dashed=1;" edge="1" parent="1" source="vlcjQJY25uTUCJ9XE4Z6-1" target="vlcjQJY25uTUCJ9XE4Z6-14">
          <mxGeometry x="0.0105" width="160" relative="1" as="geometry">
            <mxPoint x="1310" y="190" as="sourcePoint" />
            <mxPoint x="1180" y="280" as="targetPoint" />
            <mxPoint as="offset" />
          </mxGeometry>
        </mxCell>
      </root>
    </mxGraphModel>
  </diagram>
</mxfile>
